<?xml version="1.0" standalone="no"?>
<!DOCTYPE svg PUBLIC "-//W3C//DTD SVG 20010904//EN"
 "http://www.w3.org/TR/2001/REC-SVG-20010904/DTD/svg10.dtd">
<svg version="1.0" xmlns="http://www.w3.org/2000/svg"
 width="736.000000pt" height="769.000000pt" viewBox="0 0 736.000000 769.000000"
 preserveAspectRatio="xMidYMid meet">

<g transform="translate(0.000000,769.000000) scale(0.100000,-0.100000)"
fill="#000000" stroke="none">
<path d="M0 3845 l0 -3845 3680 0 3680 0 0 3845 0 3845 -3680 0 -3680 0 0
-3845z m5205 1640 c8 -187 15 -348 15 -358 0 -16 -11 -12 -75 23 l-75 42 -26
-59 c-61 -138 -115 -246 -179 -358 -505 -891 -1465 -1673 -2245 -1831 -114
-23 -304 -24 -389 -1 -144 39 -257 129 -317 254 -36 74 -64 181 -64 243 0 31
3 28 24 -31 24 -70 66 -138 110 -178 14 -13 23 -29 19 -35 -3 -6 -3 -8 1 -4 5
4 36 -9 70 -27 91 -51 172 -69 306 -69 200 0 392 54 656 184 541 266 1080 779
1440 1370 123 203 337 651 318 669 -3 3 -39 20 -80 37 l-74 31 97 84 c53 46
170 148 260 227 89 79 167 141 173 137 6 -4 10 -3 9 2 -1 4 0 13 1 18 6 22 10
-44 25 -370z m-915 -294 l0 -659 -67 -93 c-79 -112 -222 -285 -321 -389 l-71
-75 -1 938 0 937 230 0 230 0 0 -659z m-640 -740 l0 -650 -107 -86 c-116 -92
-335 -245 -352 -245 -8 0 -11 244 -11 815 l0 815 235 0 235 0 0 -649z m1469
365 c283 -356 430 -842 392 -1296 -21 -242 -78 -452 -181 -665 -228 -472 -633
-819 -1130 -968 -167 -50 -283 -68 -477 -74 -328 -10 -594 47 -874 187 -198
98 -347 208 -504 367 -80 81 -182 203 -171 203 3 0 -6 12 -20 27 -13 14 -23
27 -22 28 2 2 39 -4 83 -12 99 -18 329 -12 460 11 283 51 541 141 838 293 415
212 753 498 976 823 l72 105 -28 20 c-15 11 -39 30 -52 41 l-25 21 45 21 c24
11 140 65 258 121 118 56 215 100 216 99 1 -2 -15 -115 -36 -253 -21 -137 -38
-262 -39 -277 0 -16 -5 -28 -10 -28 -6 0 -35 18 -64 40 -29 22 -57 40 -63 40
-5 0 -31 -33 -56 -74 -55 -87 -192 -234 -309 -333 -427 -361 -1126 -703 -1594
-779 l-106 -18 24 -18 c197 -158 457 -277 720 -330 161 -33 452 -33 614 0 680
136 1199 664 1314 1336 22 131 27 378 10 501 -37 260 -141 515 -301 738 l-71
98 24 35 c13 18 26 34 30 34 3 0 29 -29 57 -64z m-2119 -871 l0 -586 -67 -30
c-91 -41 -243 -93 -325 -112 l-68 -15 -2 659 -3 658 95 4 c52 1 157 4 233 5
l137 2 0 -585z m-1153 -457 c-3 -8 -6 -5 -6 6 -1 11 2 17 5 13 3 -3 4 -12 1
-19z"/>
<path d="M1902 3270 c0 -14 2 -19 5 -12 2 6 2 18 0 25 -3 6 -5 1 -5 -13z"/>
<path d="M1927 3221 c6 -7 9 -20 6 -27 -3 -8 -3 -14 0 -14 14 0 14 30 -1 41
-14 11 -15 11 -5 0z"/>
</g>
</svg>
